<svg class="main-svg" xmlns="http://www.w3.org/2000/svg" xmlns:xlink="http://www.w3.org/1999/xlink" width="1100" height="650" style="" viewBox="0 0 1100 650"><rect x="0" y="0" width="1100" height="650" style="fill: rgb(255, 255, 255); fill-opacity: 1;"/><defs id="defs-191b50"><g class="clips"><clipPath id="clip191b50xyplot" class="plotclip"><rect width="806" height="375"/></clipPath><clipPath class="axesclip" id="clip191b50x"><rect x="80" y="0" width="806" height="650"/></clipPath><clipPath class="axesclip" id="clip191b50y"><rect x="0" y="100" width="1100" height="375"/></clipPath><clipPath class="axesclip" id="clip191b50xy"><rect x="80" y="100" width="806" height="375"/></clipPath></g><g class="gradients"><linearGradient x1="0" y1="1" x2="0" y2="0" gradientUnits="objectBoundingBox" id="g191b50-cbcoloraxis"><stop offset="0%" stop-color="rgb(68, 1, 84)" stop-opacity="1"/><stop offset="11.111111%" stop-color="rgb(72, 40, 120)" stop-opacity="1"/><stop offset="22.222222%" stop-color="rgb(62, 73, 137)" stop-opacity="1"/><stop offset="33.333333%" stop-color="rgb(49, 104, 142)" stop-opacity="1"/><stop offset="44.444444%" stop-color="rgb(38, 130, 142)" stop-opacity="1"/><stop offset="55.555556%" stop-color="rgb(31, 158, 137)" stop-opacity="1"/><stop offset="66.666667%" stop-color="rgb(53, 183, 121)" stop-opacity="1"/><stop offset="77.777778%" stop-color="rgb(110, 206, 88)" stop-opacity="1"/><stop offset="88.888889%" stop-color="rgb(181, 222, 43)" stop-opacity="1"/><stop offset="100%" stop-color="rgb(253, 231, 37)" stop-opacity="1"/></linearGradient></g><g class="patterns"/></defs><g class="bglayer"/><g class="layer-below"><g class="imagelayer"/><g class="shapelayer"/></g><g class="cartesianlayer"><g class="subplot xy"><g class="layer-subplot"><g class="shapelayer"/><g class="imagelayer"/></g><g class="minor-gridlayer"><g class="x"/><g class="y"/></g><g class="gridlayer"><g class="x"><path class="xgrid crisp" transform="translate(175.64,0)" d="M0,100v375" style="stroke: rgb(255, 255, 255); stroke-opacity: 1; stroke-width: 1px;"/><path class="xgrid crisp" transform="translate(248.56,0)" d="M0,100v375" style="stroke: rgb(255, 255, 255); stroke-opacity: 1; stroke-width: 1px;"/><path class="xgrid crisp" transform="translate(321.48,0)" d="M0,100v375" style="stroke: rgb(255, 255, 255); stroke-opacity: 1; stroke-width: 1px;"/><path class="xgrid crisp" transform="translate(394.4,0)" d="M0,100v375" style="stroke: rgb(255, 255, 255); stroke-opacity: 1; stroke-width: 1px;"/><path class="xgrid crisp" transform="translate(467.32,0)" d="M0,100v375" style="stroke: rgb(255, 255, 255); stroke-opacity: 1; stroke-width: 1px;"/><path class="xgrid crisp" transform="translate(540.24,0)" d="M0,100v375" style="stroke: rgb(255, 255, 255); stroke-opacity: 1; stroke-width: 1px;"/><path class="xgrid crisp" transform="translate(613.16,0)" d="M0,100v375" style="stroke: rgb(255, 255, 255); stroke-opacity: 1; stroke-width: 1px;"/><path class="xgrid crisp" transform="translate(686.08,0)" d="M0,100v375" style="stroke: rgb(255, 255, 255); stroke-opacity: 1; stroke-width: 1px;"/><path class="xgrid crisp" transform="translate(759.01,0)" d="M0,100v375" style="stroke: rgb(255, 255, 255); stroke-opacity: 1; stroke-width: 1px;"/><path class="xgrid crisp" transform="translate(831.93,0)" d="M0,100v375" style="stroke: rgb(255, 255, 255); stroke-opacity: 1; stroke-width: 1px;"/></g><g class="y"><path class="ygrid crisp" transform="translate(0,466.25)" d="M80,0h806" style="stroke: rgb(255, 255, 255); stroke-opacity: 1; stroke-width: 1px;"/><path class="ygrid crisp" transform="translate(0,414.98)" d="M80,0h806" style="stroke: rgb(255, 255, 255); stroke-opacity: 1; stroke-width: 1px;"/><path class="ygrid crisp" transform="translate(0,363.71)" d="M80,0h806" style="stroke: rgb(255, 255, 255); stroke-opacity: 1; stroke-width: 1px;"/><path class="ygrid crisp" transform="translate(0,312.44)" d="M80,0h806" style="stroke: rgb(255, 255, 255); stroke-opacity: 1; stroke-width: 1px;"/><path class="ygrid crisp" transform="translate(0,261.16999999999996)" d="M80,0h806" style="stroke: rgb(255, 255, 255); stroke-opacity: 1; stroke-width: 1px;"/><path class="ygrid crisp" transform="translate(0,209.9)" d="M80,0h806" style="stroke: rgb(255, 255, 255); stroke-opacity: 1; stroke-width: 1px;"/><path class="ygrid crisp" transform="translate(0,158.63)" d="M80,0h806" style="stroke: rgb(255, 255, 255); stroke-opacity: 1; stroke-width: 1px;"/><path class="ygrid crisp" transform="translate(0,107.37)" d="M80,0h806" style="stroke: rgb(255, 255, 255); stroke-opacity: 1; stroke-width: 1px;"/></g></g><g class="zerolinelayer"/><g class="layer-between"><g class="shapelayer"/><g class="imagelayer"/></g><path class="xlines-below"/><path class="ylines-below"/><g class="overlines-below"/><g class="xaxislayer-below"/><g class="yaxislayer-below"/><g class="overaxes-below"/><g class="overplot"><g class="xy" transform="translate(80,100)" clip-path="url(#clip191b50xyplot)"><g class="scatterlayer mlayer"><g class="trace scatter traced79571" style="stroke-miterlimit: 2; opacity: 1;"><g class="fills"/><g class="errorbars"/><g class="lines"/><g class="points"><path class="point" transform="translate(95.64,289.35)" d="M49.5,0A49.5,49.5 0 1,1 0,-49.5A49.5,49.5 0 0,1 49.5,0Z" style="opacity: 0.7; stroke-width: 1px; fill: rgb(253, 231, 37); fill-opacity: 1; stroke: rgb(255, 255, 255); stroke-opacity: 1;"/><path class="point" transform="translate(168.56,263.94)" d="M25.86,0A25.86,25.86 0 1,1 0,-25.86A25.86,25.86 0 0,1 25.86,0Z" style="opacity: 0.7; stroke-width: 1px; fill: rgb(62, 74, 137); fill-opacity: 1; stroke: rgb(255, 255, 255); stroke-opacity: 1;"/><path class="point" transform="translate(241.48,210.8)" d="M25.66,0A25.66,25.66 0 1,1 0,-25.66A25.66,25.66 0 0,1 25.66,0Z" style="opacity: 0.7; stroke-width: 1px; fill: rgb(62, 72, 137); fill-opacity: 1; stroke: rgb(255, 255, 255); stroke-opacity: 1;"/><path class="point" transform="translate(314.4,134.26)" d="M21.95,0A21.95,21.95 0 1,1 0,-21.95A21.95,21.95 0 0,1 21.95,0Z" style="opacity: 0.7; stroke-width: 1px; fill: rgb(69, 50, 125); fill-opacity: 1; stroke: rgb(255, 255, 255); stroke-opacity: 1;"/><path class="point" transform="translate(387.32,122.49)" d="M21.71,0A21.71,21.71 0 1,1 0,-21.71A21.71,21.71 0 0,1 21.71,0Z" style="opacity: 0.7; stroke-width: 1px; fill: rgb(69, 48, 124); fill-opacity: 1; stroke: rgb(255, 255, 255); stroke-opacity: 1;"/><path class="point" transform="translate(460.24,35.9)" d="M15.34,0A15.34,15.34 0 1,1 0,-15.34A15.34,15.34 0 0,1 15.34,0Z" style="opacity: 0.7; stroke-width: 1px; fill: rgb(69, 14, 96); fill-opacity: 1; stroke: rgb(255, 255, 255); stroke-opacity: 1;"/><path class="point" transform="translate(533.16,339.85)" d="M14.67,0A14.67,14.67 0 1,1 0,-14.67A14.67,14.67 0 0,1 14.67,0Z" style="opacity: 0.7; stroke-width: 1px; fill: rgb(69, 11, 93); fill-opacity: 1; stroke: rgb(255, 255, 255); stroke-opacity: 1;"/><path class="point" transform="translate(606.08,226.8)" d="M13.94,0A13.94,13.94 0 1,1 0,-13.94A13.94,13.94 0 0,1 13.94,0Z" style="opacity: 0.7; stroke-width: 1px; fill: rgb(69, 7, 90); fill-opacity: 1; stroke: rgb(255, 255, 255); stroke-opacity: 1;"/><path class="point" transform="translate(679.01,39.41)" d="M12.37,0A12.37,12.37 0 1,1 0,-12.37A12.37,12.37 0 0,1 12.37,0Z" style="opacity: 0.7; stroke-width: 1px; fill: rgb(68, 1, 84); fill-opacity: 1; stroke: rgb(255, 255, 255); stroke-opacity: 1;"/><path class="point" transform="translate(751.93,88.12)" d="M12.32,0A12.32,12.32 0 1,1 0,-12.32A12.32,12.32 0 0,1 12.32,0Z" style="opacity: 0.7; stroke-width: 1px; fill: rgb(68, 1, 84); fill-opacity: 1; stroke: rgb(255, 255, 255); stroke-opacity: 1;"/></g><g class="text"/></g></g></g></g><path class="xlines-above crisp" d="M79,475.5H886" style="fill: none; stroke-width: 1px; stroke: rgb(128, 128, 128); stroke-opacity: 1;"/><path class="ylines-above crisp" d="M79.5,100V475" style="fill: none; stroke-width: 1px; stroke: rgb(128, 128, 128); stroke-opacity: 1;"/><g class="overlines-above"/><g class="xaxislayer-above"><g class="xtick"><text text-anchor="end" x="0" y="490.4" transform="translate(175.64,0) rotate(-40,0,484.4)" style="font-family: Helvetica; font-size: 12px; fill: rgb(42, 63, 95); fill-opacity: 1; white-space: pre; opacity: 1;">Data Analysts</text></g><g class="xtick"><text text-anchor="end" x="0" y="490.4" transform="translate(248.56,0) rotate(-40,0,484.4)" style="font-family: Helvetica; font-size: 12px; fill: rgb(42, 63, 95); fill-opacity: 1; white-space: pre; opacity: 1;">Business Intelligence Analysts</text></g><g class="xtick"><text text-anchor="end" x="0" y="490.4" transform="translate(321.48,0) rotate(-40,0,484.4)" style="font-family: Helvetica; font-size: 12px; fill: rgb(42, 63, 95); fill-opacity: 1; white-space: pre; opacity: 1;">Unclassified</text></g><g class="xtick"><text text-anchor="end" x="0" y="490.4" transform="translate(394.4,0) rotate(-40,0,484.4)" style="font-family: Helvetica; font-size: 12px; fill: rgb(42, 63, 95); fill-opacity: 1; white-space: pre; opacity: 1;">Oracle Cloud HCM Consultants</text></g><g class="xtick"><text text-anchor="end" x="0" y="490.4" transform="translate(467.32,0) rotate(-40,0,484.4)" style="font-family: Helvetica; font-size: 12px; fill: rgb(42, 63, 95); fill-opacity: 1; white-space: pre; opacity: 1;">Enterprise Architects</text></g><g class="xtick"><text text-anchor="end" x="0" y="490.4" transform="translate(540.24,0) rotate(-40,0,484.4)" style="font-family: Helvetica; font-size: 12px; fill: rgb(42, 63, 95); fill-opacity: 1; white-space: pre; opacity: 1;">Data Analytics Engineers</text></g><g class="xtick"><text text-anchor="end" x="0" y="490.4" transform="translate(613.16,0) rotate(-40,0,484.4)" style="font-family: Helvetica; font-size: 12px; fill: rgb(42, 63, 95); fill-opacity: 1; white-space: pre; opacity: 1;">Data and Reporting Analysts</text></g><g class="xtick"><text text-anchor="end" x="0" y="490.4" transform="translate(686.08,0) rotate(-40,0,484.4)" style="font-family: Helvetica; font-size: 12px; fill: rgb(42, 63, 95); fill-opacity: 1; white-space: pre; opacity: 1;">Data Governance Analysts</text></g><g class="xtick"><text text-anchor="end" x="0" y="490.4" transform="translate(759.01,0) rotate(-40,0,484.4)" style="font-family: Helvetica; font-size: 12px; fill: rgb(42, 63, 95); fill-opacity: 1; white-space: pre; opacity: 1;">Principal Architects</text></g><g class="xtick"><text text-anchor="end" x="0" y="490.4" transform="translate(831.93,0) rotate(-40,0,484.4)" style="font-family: Helvetica; font-size: 12px; fill: rgb(42, 63, 95); fill-opacity: 1; white-space: pre; opacity: 1;">Enterprise Solutions Architects</text></g></g><g class="yaxislayer-above"><g class="ytick"><text text-anchor="end" x="76.6" y="4.199999999999999" transform="translate(0,466.25)" style="font-family: Helvetica; font-size: 12px; fill: rgb(42, 63, 95); fill-opacity: 1; white-space: pre; opacity: 1;">60k</text></g><g class="ytick"><text text-anchor="end" x="76.6" y="4.199999999999999" style="font-family: Helvetica; font-size: 12px; fill: rgb(42, 63, 95); fill-opacity: 1; white-space: pre; opacity: 1;" transform="translate(0,414.98)">80k</text></g><g class="ytick"><text text-anchor="end" x="76.6" y="4.199999999999999" style="font-family: Helvetica; font-size: 12px; fill: rgb(42, 63, 95); fill-opacity: 1; white-space: pre; opacity: 1;" transform="translate(0,363.71)">100k</text></g><g class="ytick"><text text-anchor="end" x="76.6" y="4.199999999999999" style="font-family: Helvetica; font-size: 12px; fill: rgb(42, 63, 95); fill-opacity: 1; white-space: pre; opacity: 1;" transform="translate(0,312.44)">120k</text></g><g class="ytick"><text text-anchor="end" x="76.6" y="4.199999999999999" style="font-family: Helvetica; font-size: 12px; fill: rgb(42, 63, 95); fill-opacity: 1; white-space: pre; opacity: 1;" transform="translate(0,261.16999999999996)">140k</text></g><g class="ytick"><text text-anchor="end" x="76.6" y="4.199999999999999" style="font-family: Helvetica; font-size: 12px; fill: rgb(42, 63, 95); fill-opacity: 1; white-space: pre; opacity: 1;" transform="translate(0,209.9)">160k</text></g><g class="ytick"><text text-anchor="end" x="76.6" y="4.199999999999999" style="font-family: Helvetica; font-size: 12px; fill: rgb(42, 63, 95); fill-opacity: 1; white-space: pre; opacity: 1;" transform="translate(0,158.63)">180k</text></g><g class="ytick"><text text-anchor="end" x="76.6" y="4.199999999999999" style="font-family: Helvetica; font-size: 12px; fill: rgb(42, 63, 95); fill-opacity: 1; white-space: pre; opacity: 1;" transform="translate(0,107.37)">200k</text></g></g><g class="overaxes-above"/></g></g><g class="polarlayer"/><g class="smithlayer"/><g class="ternarylayer"/><g class="geolayer"/><g class="funnelarealayer"/><g class="pielayer"/><g class="iciclelayer"/><g class="treemaplayer"/><g class="sunburstlayer"/><g class="glimages"/><defs id="topdefs-191b50"><g class="clips"/></defs><g class="layer-above"><g class="imagelayer"/><g class="shapelayer"/></g><g class="infolayer"><g class="cbcoloraxis colorbar" transform="translate(80,100)"><rect class="cbbg" x="822" y="0" width="186.125" height="375" style="fill: rgb(0, 0, 0); fill-opacity: 0; stroke: rgb(68, 68, 68); stroke-opacity: 1; stroke-width: 0;"/><g class="cbfills" transform="translate(0,35)"><rect class="cbfill gradient_filled" style="fill: url('#g191b50-cbcoloraxis');" x="832" y="0" width="30" height="330"/></g><g class="cblines" transform="translate(0,35)"/><g class="cbaxis crisp" transform="translate(0,-100)"><g class="ycbcoloraxistick"><text text-anchor="start" x="865.3" y="4.8999999999999995" transform="translate(0,438.36)" style="font-family: Helvetica; font-size: 14px; fill: rgb(42, 63, 95); fill-opacity: 1; white-space: pre; opacity: 1;">500</text></g><g class="ycbcoloraxistick"><text text-anchor="start" x="865.3" y="4.8999999999999995" style="font-family: Helvetica; font-size: 14px; fill: rgb(42, 63, 95); fill-opacity: 1; white-space: pre; opacity: 1;" transform="translate(0,389.92999999999995)">1000</text></g><g class="ycbcoloraxistick"><text text-anchor="start" x="865.3" y="4.8999999999999995" style="font-family: Helvetica; font-size: 14px; fill: rgb(42, 63, 95); fill-opacity: 1; white-space: pre; opacity: 1;" transform="translate(0,341.5)">1500</text></g><g class="ycbcoloraxistick"><text text-anchor="start" x="865.3" y="4.8999999999999995" style="font-family: Helvetica; font-size: 14px; fill: rgb(42, 63, 95); fill-opacity: 1; white-space: pre; opacity: 1;" transform="translate(0,293.06999999999994)">2000</text></g><g class="ycbcoloraxistick"><text text-anchor="start" x="865.3" y="4.8999999999999995" style="font-family: Helvetica; font-size: 14px; fill: rgb(42, 63, 95); fill-opacity: 1; white-space: pre; opacity: 1;" transform="translate(0,244.64)">2500</text></g><g class="ycbcoloraxistick"><text text-anchor="start" x="865.3" y="4.8999999999999995" style="font-family: Helvetica; font-size: 14px; fill: rgb(42, 63, 95); fill-opacity: 1; white-space: pre; opacity: 1;" transform="translate(0,196.21999999999997)">3000</text></g><g class="ycbcoloraxistick"><text text-anchor="start" x="865.3" y="4.8999999999999995" style="font-family: Helvetica; font-size: 14px; fill: rgb(42, 63, 95); fill-opacity: 1; white-space: pre; opacity: 1;" transform="translate(0,147.78999999999996)">3500</text></g></g><g class="cbtitleunshift" transform="translate(-80,-100)"><g class="cbtitle" transform=""><text class="ycbcoloraxistitle" x="912.12" y="125.75" text-anchor="start" style="opacity: 1; font-family: Helvetica; font-size: 17px; fill: rgb(42, 63, 95); fill-opacity: 1; white-space: pre;">Number of Postings</text></g></g><rect class="cboutline" x="832" y="35" width="30" height="330" style="stroke: rgb(68, 68, 68); stroke-opacity: 1; fill: none; stroke-width: 0;"/></g><g class="g-gtitle"><text class="gtitle" x="55" y="50" text-anchor="start" dy="0em" style="opacity: 1; font-family: Helvetica; font-size: 20px; fill: rgb(42, 63, 95); fill-opacity: 1; white-space: pre;">Top 10 Roles by Salary &amp; Demand</text></g><g class="g-xtitle"><text class="xtitle" x="483" y="637.957421875" text-anchor="middle" style="opacity: 1; font-family: Helvetica; font-size: 18px; fill: rgb(42, 63, 95); fill-opacity: 1; white-space: pre;">Job Role</text></g><g class="g-ytitle"><text class="ytitle" transform="rotate(-90,24.793750000000003,287.5)" x="24.793750000000003" y="287.5" text-anchor="middle" style="opacity: 1; font-family: Helvetica; font-size: 18px; fill: rgb(42, 63, 95); fill-opacity: 1; white-space: pre;">Median Salary</text></g></g></svg>